<svg xmlns="http://www.w3.org/2000/svg" viewBox="0 0 350 100"><defs><style>.cls-1{fill:#ccc;}</style></defs><title>Asset 1</title><g id="Layer_2" data-name="Layer 2"><g id="Layer_1-2" data-name="Layer 1"><rect class="cls-1" width="100" height="100" rx="10" ry="10"/><circle cx="50" cy="50" r="40"/><circle class="cls-1" cx="62" cy="37" r="5"/><circle class="cls-1" cx="37" cy="37" r="5"/><path class="cls-1" d="M32.06,69.06c9.56-9.51,29-19.24,39.15-5.31,1.6,2.19,5.29.07,3.67-2.15-12-16.39-34-7.32-45.82,4.45-1.95,1.93,1.06,4.94,3,3Z"/><rect class="cls-1" x="125" width="100" height="100" rx="10" ry="10"/><circle cx="175" cy="50" r="40"/><circle class="cls-1" cx="187" cy="37" r="5"/><circle class="cls-1" cx="162" cy="37" r="5"/><path class="cls-1" d="M157.57,63.93A221.4,221.4,0,0,1,195,59c2.73-.12,2.74-4.37,0-4.25a227.88,227.88,0,0,0-38.57,5.07c-2.67.59-1.54,4.69,1.14,4.1Z"/><rect class="cls-1" x="250" width="100" height="100" rx="10" ry="10"/><circle cx="300" cy="50" r="40"/><circle class="cls-1" cx="312" cy="37" r="5"/><circle class="cls-1" cx="287" cy="37" r="5"/><path class="cls-1" d="M287.68,58.9c7.41,7.08,18.16,6.95,25.58,0,2-1.88-1.13-4.76-3.12-2.89-5.75,5.42-13.91,5.22-19.57-.18-2-1.9-4.87,1.22-2.89,3.11Z"/></g></g></svg>